<svg xmlns="http://www.w3.org/2000/svg" viewBox="0 0 160 54"><g fill="#e52236"><path d="M152.268.012v17.409L142.376.012h-9.978v30.886h7.775V11.503l11.274 19.395H160V.012h-7.732zm-61.426 0v30.886h22.031v-6.825H99.654v-5.615h9.979V12.15h-9.979V6.838h12.527V.012H90.842zm-57.235 0l-4.19 19.439L24.924.012h-7.861l-4.147 19.266L8.942.012H0l7.17 30.886h8.639l4.795-19.612 4.751 19.612H34.6L41.814.012h-8.207zM16.329 51.775c0 .893-.383 1.345-1.138 1.345a2.22 2.22 0 01-.96-.202l-.092-.039v.886l.035.019c.181.095.466.204 1.068.204 1.327 0 2.12-.812 2.12-2.171v-5.471h-1.034v5.429h.001zM23.183 50.471h2.76v-.868h-2.76v-2.39h3.424v-.867h-4.458v7.549h4.645v-.868h-3.611v-2.556zM30.5 47.213h2.158v6.682h1.035v-6.682h2.158v-.867H30.5v.867zM39.692 47.213h3.774l-4.137 6.435-.01.016v.231h5.515v-.899h-3.972l4.025-6.415.01-.016v-.219h-5.205v.867zM48.614 47.213h2.158v6.682h1.035v-6.682h2.157v-.867h-5.35v.867zM76.594 53.895h1.035v-3.32h2.676v-.868h-2.676v-2.494h3.433v-.867h-4.468v7.549zM89.161 45.709a.615.615 0 100-1.23.615.615 0 000 1.23zM89.884 50.883c0 1.337-.31 2.227-1.822 2.227-1.221 0-1.719-.607-1.719-2.092v-4.672h-1.035v4.775c0 1.822.996 2.867 2.732 2.867 1.855 0 2.877-1.058 2.877-2.98v-4.662h-1.034v4.537h.001zM87.055 45.709a.615.615 0 10.001-1.23.615.615 0 00-.001 1.23zM99.625 48.475v.042c0 .865-.526 1.304-1.563 1.304h-1.324v-2.618h1.324c1.081 0 1.563.393 1.563 1.272zm1.035.042v-.042c0-1.353-.97-2.13-2.659-2.13h-2.297v7.549h1.035v-3.227h1.04l2.19 3.198.02.029h1.166l-2.287-3.311c1.157-.254 1.792-.986 1.792-2.066zM110.207 53.895h1.035v-7.549h-1.035v7.549zM119.755 52.009l-2.231-5.622-.016-.041h-1.367v7.549h.962v-5.976l2.415 5.935.017.041h.369l2.348-5.965v5.965h1.034v-7.549h-1.356l-2.175 5.663zM131.747 52.009l-2.23-5.622-.017-.041h-1.366v7.549h.962v-5.976l2.415 5.935.017.041h.368l2.349-5.965v5.965h1.034v-7.549h-1.356l-2.176 5.663zM141.162 50.471h2.759v-.868h-2.759v-2.39h3.422v-.867h-4.457v7.549h4.644v-.868h-3.609v-2.556zM153.033 48.475v.042c0 .865-.526 1.304-1.564 1.304h-1.324v-2.618h1.324c1.082 0 1.564.393 1.564 1.272zm-.757 2.109c1.157-.256 1.792-.987 1.792-2.067v-.042c0-1.353-.969-2.13-2.66-2.13h-2.295v7.549h1.034v-3.227h1.04l2.191 3.198.019.029h1.166l-2.287-3.31zM64.922 46.441c-.778-.003-3.696 2.888-3.699 3.678-.004.787 2.884 3.707 3.667 3.71.786.004 3.696-2.891 3.699-3.678.004-.791-2.881-3.707-3.667-3.71zM60.691 30.898h8.941V.012h-8.941v30.886z"/></g></svg>